<svg xmlns="http://www.w3.org/2000/svg" viewBox="0 0 15 15"><defs><style>.cls-1{fill:#bf0f50;}.cls-2,.cls-3,.cls-4{fill:#fff;}.cls-3{font-size:0.95px;}.cls-3,.cls-4{font-family:Poppins-SemiBold, Poppins;font-weight:600;}.cls-4{font-size:0.63px;}</style></defs><g id="OBJECTS"><circle class="cls-1" cx="7.77" cy="7.85" r="6.77"/><path class="cls-2" d="M7.33,5.49l0,0h0Z"/><path class="cls-2" d="M7.89,4.72l-.16-.46-.16.46H7.09l.38.3-.13.43H7.4l.33-.23.08,0,.06,0v.08l.26.18L8,5l.39-.3Zm-.39.59v0l0,0v0Zm.12-.41s0,0,0-.05a.17.17,0,0,1,.1.06S7.65,4.91,7.62,4.9Zm.15.33h0Zm0-.31h0Z"/><path class="cls-2" d="M10.12,10.84h0v-.72H10v.74a.38.38,0,0,1-.17.33v.05l0,0h0l-.34.17c0,.06,0,.1,0,.13h0c-.08-.05-.09-.06,0-.12l-1.46.75a.37.37,0,0,1-.38,0l-1.82-.94a.42.42,0,0,1-.22-.37v-.74H5.3v.74a.6.6,0,0,0,.32.54l1,.55s0,0,0,0l0,0h0l0,0h0l.71.37a.55.55,0,0,0,.28.07l.16,0h0a0,0,0,0,1,0,0l0,0s0,0,0,0,0,0,0,0l0,0a.2.2,0,0,0,.08,0l1.82-.95a.6.6,0,0,0,.33-.52l-.05,0Zm-4.71-.13.06,0a0,0,0,0,1,0,0s0,0,0,0Zm.09.54h0l0,0h0S5.51,11.25,5.5,11.25Zm.22.18h0v0a.06.06,0,0,1,.09,0Zm.24.09H6Zm1.69.81h0Zm2.44-1.63h0Z"/><path class="cls-2" d="M5.49,5.49c-.09,0-.09,0-.13-.06a.09.09,0,0,1,.13.06V4.82a.42.42,0,0,1,.22-.37l1.55-.8h0l.26-.13a.37.37,0,0,1,.38,0l1,.52H9v0l.78.4a.42.42,0,0,1,.22.37v.44c.05,0,.06,0,.05.12l-.05,0v.23h.2V4.82a.6.6,0,0,0-.33-.54l-.3-.16-.07,0h0L8,3.33a.61.61,0,0,0-.56,0l-1.82,1a.6.6,0,0,0-.32.54v.74h.19ZM10,4.65s0,0,0-.06l0,0a.06.06,0,0,1,0,.06h0A0,0,0,0,1,10,4.65ZM9.15,4h0Zm-.79-.36.09,0c-.1.1-.1.1-.17.05Zm-.65-.28s0,0,0,0l0,0s0,0,0,.06h0A.07.07,0,0,1,7.71,3.34Zm-1,.39,0,0H6.71Zm0,0,.09,0c-.1.1-.11.1-.17,0Zm-1.31.72s0,0,.09,0l-.06,0h0Z"/><path class="cls-2" d="M11.91,8.79l0,0,0,0h0v-3h-.77V8.06h0l0,0h0v.6h0s0,.06,0,.08v1.66h.77V8.78Zm-.36-2.31s0,0,0,0v0h-.06Zm.06.1,0,0,0,0s0,0,0,0Zm-.12-.3,0,0s0,0,0,0l0,0Zm-.05,1.44h0v0h0Zm0,1.11h0a.06.06,0,0,0,0,0h0V9H11.4C11.42,8.91,11.42,8.86,11.48,8.83Zm-.2-2.07a.13.13,0,0,1-.07.13C11.19,6.82,11.23,6.8,11.28,6.76Zm-.07,1.88c.07,0,.07,0,.12,0S11.27,8.64,11.21,8.64Zm.14,1.61h0v0h0Zm0-3.6h0l0,0h0Zm.05,2.94h0Zm0,.16.08,0,.09,0C11.49,9.8,11.48,9.8,11.42,9.75Zm.17-1h0Zm.2,1.55H11.6L11.67,9h0V9h0l.09-1.83h0s-.05,0-.05,0,.05,0,.1,0l0-.54Zm.1-1h0Z"/><path class="cls-2" d="M12.86,8.73h0V7.09h0v0h0v-1h-.65V7.68h0V10.1h.65V8.75h0Zm-.18-2h0s.06,0,0,.12l-.08-.08ZM12.26,7h0Zm.09,1h0s0,0,0,0,0,0,0-.06a.11.11,0,0,0,0,0S12.35,8,12.35,8Zm0,1.63v0h0v0Zm.05-2.74h0l0-.07S12.44,6.89,12.41,6.9Zm.05-.1,0,0v0h0Zm.07,2.32h0v0h0Zm.24.46h0V10h-.15l.08-1.31s0,0-.07,0h.07l.07-1.14V8.58h0l0,0v1l0,0h0Zm0-1.89,0,0s0,0,0,0l0,0Z"/><path class="cls-2" d="M13.52,8.06s0,0,0-.07a.1.1,0,0,1,.12-.07V7.33h-.49v.59a.19.19,0,0,1,.13-.07h0s0,0,0,0a.16.16,0,0,1-.16.06v.88h.49V8.07h0A.07.07,0,0,1,13.52,8.06Zm-.14,0h0Zm.13.68h-.12l.12-.61Z"/><path class="cls-2" d="M10.9,7.77l0,0h0l0,0H10v.66h.88Zm-.83.53h0v0h0Zm.07-.11h0l0,0h0A.05.05,0,0,1,10.14,8.19ZM10.3,8l0,0,0,0,0,0Zm.15.23c0,.06,0,.08-.06.08h0c0-.05,0-.06,0-.09l0,0S10.46,8.22,10.45,8.23Zm0-.4-.09.07,0,0a.07.07,0,0,1,.11-.07S10.46,7.82,10.46,7.83Z"/><path class="cls-2" d="M4.39,6.14V5.72H3.62v.86s0,0,.06.06l-.06.08v3.71h.77V6.13ZM4.26,7.88,4.17,8l0,0a.08.08,0,0,1,.11-.08Zm-.15-2a.07.07,0,0,1,.09,0s0,0,0,0l-.11.07A.35.35,0,0,0,4.11,5.84Zm0,.73h0a0,0,0,0,1,0,.07h0l0,0ZM3.85,8.33h0v0h0Zm-.1,2V7.88h0s0,0,0-.06h0V6.59l.19,3.74Zm.17-2.1,0,0H4l0,0ZM4,9.34a0,0,0,0,1,0,0H4v0ZM3.94,7H4a.06.06,0,0,1,0,.09C4,7.05,4,7,3.94,7ZM4.06,8l0,0,0,0,0,0Zm.1,2.26,0,0,0,0,0-.06C4.17,10.24,4.17,10.26,4.16,10.27Zm0-.37c-.08,0-.09-.05,0-.14a.82.82,0,0,1,0,.14Zm0-1.54h0s0-.06,0-.08l0,0s0,0,0,0S4.22,8.37,4.19,8.36Zm.09,1h0a.07.07,0,0,1,0-.06l0-.05,0,.05A.14.14,0,0,1,4.28,9.4Zm0-3.24,0,0h0S4.32,6.15,4.32,6.16Z"/><path class="cls-2" d="M3.32,9.81h0V7.7h0l0,0V6.06H2.67V9.42s.05,0,.1,0-.06.07-.1,0v.65h.66V9.85l0,0S3.31,9.81,3.32,9.81Zm-.3-2H3l0,0v0ZM3,7a.28.28,0,0,1,0,.09c-.06,0-.08,0-.09-.09Zm-.1-.6.05.08H2.8v0A.07.07,0,0,1,2.86,6.39ZM2.73,8.87h0l0,0,0,0Zm0-2.25s0,0,.06,0l0,0,0,0s0,0,0,0ZM2.8,10V7.47l.07,1.14h.07s0,0,0,0l-.07.06L3,10ZM3,8s0,0,0,0a0,0,0,0,1,0,0S3,8,3,8ZM3,9.84H3v0H3S3,9.84,3,9.84Zm.07-3,0,0-.05,0,0,0Zm0,.43h0v0h0Zm0,2.65,0,0v0l0,0Zm.05-3h0Zm.07,2.86h0l0,0h0Z"/><path class="cls-2" d="M2.4,8.15s0,0,0,0,0,0,0,0h0V8h0a0,0,0,0,1,0,0h0V7.33H1.91v1.5H2.4V8.14ZM2,8.73V8.4l0,0a.08.08,0,0,1,0-.09V8.12l0,.18h0a.43.43,0,0,1,0,.05l.08.39Zm.11-.55h0v0h0Zm.18.52h0Zm0-.84,0,0,0,0,0,0Z"/><path class="cls-2" d="M5.52,8.27h0V7.75H4.64v.66h.88Zm-.84-.43h0l0,0,0,0S4.69,7.83,4.68,7.84Zm.27.3h0s0,0,0,0H5Zm.07,0H5Zm.13,0,.14-.16s0,0,0,0A.19.19,0,0,1,5.15,8.1ZM5.38,8h0Z"/><text class="cls-3" transform="translate(5.94 7.63)">FITNESS <tspan x="0.62" y="1.13">CLUB</tspan></text><text class="cls-4" transform="translate(6.46 10.53)">est. 1998</text></g></svg>