<svg xmlns="http://www.w3.org/2000/svg" xmlns:xlink="http://www.w3.org/1999/xlink" version="1.1" width="256" height="256" viewBox="0 0 256 256" xml:space="preserve">
<desc>Created with Fabric.js 1.7.22</desc>
<defs>
</defs>
<g transform="translate(128 128) scale(0.72 0.72)" style="">
	<g style="stroke: none; stroke-width: 0; stroke-dasharray: none; stroke-linecap: butt; stroke-linejoin: miter; stroke-miterlimit: 10; fill: rgb(191,15,80); fill-rule: nonzero; opacity: 1;" transform="translate(-175.05 -175.05000000000004) scale(3.89 3.89)" >
	<circle cx="45" cy="45" r="45" style="stroke: none; stroke-width: 1; stroke-dasharray: none; stroke-linecap: butt; stroke-linejoin: miter; stroke-miterlimit: 10; fill: rgb(191,15,80); fill-rule: nonzero; opacity: 1;" transform="  matrix(1 0 0 1 0 0) "/>
</g>
	<g style="stroke: none; stroke-width: 0; stroke-dasharray: none; stroke-linecap: butt; stroke-linejoin: miter; stroke-miterlimit: 10; fill: none; fill-rule: nonzero; opacity: 1;" transform="translate(-130.05 -130.05000000000004) scale(2.89 2.89)" >
	<path d="M 44.333 53.889 c -7.123 0 -14.022 -0.55 -20.65 -1.651 c -0.965 -0.16 -1.672 -0.994 -1.672 -1.973 V 39.735 c 0 -0.978 0.708 -1.813 1.672 -1.973 c 13.243 -2.199 27.574 -2.201 42.595 -0.006 c 0.982 0.144 1.711 0.986 1.711 1.979 v 10.529 c 0 0.993 -0.729 1.835 -1.711 1.979 C 58.775 53.341 51.442 53.889 44.333 53.889 z M 26.011 48.557 c 11.863 1.785 24.622 1.776 37.978 -0.03 v -7.053 c -13.357 -1.807 -26.117 -1.816 -37.978 -0.03 V 48.557 z" style="stroke: none; stroke-width: 1; stroke-dasharray: none; stroke-linecap: butt; stroke-linejoin: miter; stroke-miterlimit: 10; fill: rgb(255,255,255); fill-rule: nonzero; opacity: 1;" transform=" matrix(1 0 0 1 0 0) " stroke-linecap="round" />
	<path d="M 17.669 63.771 h -3.462 c -4.6 0 -8.341 -3.742 -8.341 -8.342 V 34.57 c 0 -4.6 3.742 -8.341 8.341 -8.341 h 3.462 c 4.6 0 8.342 3.742 8.342 8.341 v 20.86 C 26.011 60.029 22.269 63.771 17.669 63.771 z M 14.208 30.229 c -2.394 0 -4.341 1.947 -4.341 4.341 v 20.86 c 0 2.395 1.947 4.342 4.341 4.342 h 3.462 c 2.394 0 4.342 -1.947 4.342 -4.342 V 34.57 c 0 -2.394 -1.948 -4.341 -4.342 -4.341 H 14.208 z" style="stroke: none; stroke-width: 1; stroke-dasharray: none; stroke-linecap: butt; stroke-linejoin: miter; stroke-miterlimit: 10; fill: rgb(255,255,255); fill-rule: nonzero; opacity: 1;" transform=" matrix(1 0 0 1 0 0) " stroke-linecap="round" />
	<path d="M 75.792 63.771 h -3.461 c -4.6 0 -8.342 -3.742 -8.342 -8.342 V 34.57 c 0 -4.6 3.742 -8.341 8.342 -8.341 h 3.461 c 4.6 0 8.342 3.742 8.342 8.341 v 20.86 C 84.134 60.029 80.392 63.771 75.792 63.771 z M 72.331 30.229 c -2.395 0 -4.342 1.947 -4.342 4.341 v 20.86 c 0 2.395 1.947 4.342 4.342 4.342 h 3.461 c 2.395 0 4.342 -1.947 4.342 -4.342 V 34.57 c 0 -2.394 -1.947 -4.341 -4.342 -4.341 H 72.331 z" style="stroke: none; stroke-width: 1; stroke-dasharray: none; stroke-linecap: butt; stroke-linejoin: miter; stroke-miterlimit: 10; fill: rgb(255,255,255); fill-rule: nonzero; opacity: 1;" transform=" matrix(1 0 0 1 0 0) " stroke-linecap="round" />
	<path d="M 7.866 55.72 H 4.299 C 1.928 55.72 0 53.791 0 51.421 V 38.579 c 0 -2.371 1.928 -4.299 4.299 -4.299 h 3.567 c 1.104 0 2 0.896 2 2 V 53.72 C 9.866 54.824 8.971 55.72 7.866 55.72 z M 4.299 38.28 C 4.134 38.28 4 38.415 4 38.579 v 12.842 c 0 0.165 0.134 0.299 0.299 0.299 h 1.567 V 38.28 H 4.299 z" style="stroke: none; stroke-width: 1; stroke-dasharray: none; stroke-linecap: butt; stroke-linejoin: miter; stroke-miterlimit: 10; fill: rgb(255,255,255); fill-rule: nonzero; opacity: 1;" transform=" matrix(1 0 0 1 0 0) " stroke-linecap="round" />
	<path d="M 85.701 55.72 h -3.567 c -1.104 0 -2 -0.896 -2 -2 V 36.28 c 0 -1.104 0.896 -2 2 -2 h 3.567 c 2.37 0 4.299 1.928 4.299 4.299 v 12.842 C 90 53.791 88.071 55.72 85.701 55.72 z M 84.134 51.72 h 1.567 c 0.165 0 0.299 -0.134 0.299 -0.299 V 38.579 c 0 -0.165 -0.134 -0.299 -0.299 -0.299 h -1.567 V 51.72 z" style="stroke: none; stroke-width: 1; stroke-dasharray: none; stroke-linecap: butt; stroke-linejoin: miter; stroke-miterlimit: 10; fill: rgb(255,255,255); fill-rule: nonzero; opacity: 1;" transform=" matrix(1 0 0 1 0 0) " stroke-linecap="round" />
</g>
</g>
</svg>