<svg xmlns="http://www.w3.org/2000/svg" xmlns:xlink="http://www.w3.org/1999/xlink" version="1.1" width="256" height="256" viewBox="0 0 256 256" xml:space="preserve">
<desc>Created with Fabric.js 1.7.22</desc>
<defs>
</defs>
<g transform="translate(128 128) scale(0.72 0.72)" style="">
	<g style="stroke: none; stroke-width: 0; stroke-dasharray: none; stroke-linecap: butt; stroke-linejoin: miter; stroke-miterlimit: 10; fill: rgb(191,15,80); fill-rule: nonzero; opacity: 1;" transform="translate(-175.05 -175.05000000000004) scale(3.89 3.89)" >
	<circle cx="45" cy="45" r="45" style="stroke: none; stroke-width: 1; stroke-dasharray: none; stroke-linecap: butt; stroke-linejoin: miter; stroke-miterlimit: 10; fill: rgb(191,15,80); fill-rule: nonzero; opacity: 1;" transform="  matrix(1 0 0 1 0 0) "/>
</g>
	<g style="stroke: none; stroke-width: 0; stroke-dasharray: none; stroke-linecap: butt; stroke-linejoin: miter; stroke-miterlimit: 10; fill: none; fill-rule: nonzero; opacity: 1;" transform="translate(-130.05 -130.05000000000004) scale(2.89 2.89)" >
	<path d="M 28 70.89 c -3.462 0 -6.924 -1.561 -10.22 -4.684 c -4.688 -4.441 -8.871 -4.44 -13.561 0 c -1.002 0.95 -2.584 0.906 -3.534 -0.095 c -0.95 -1.003 -0.907 -2.585 0.096 -3.534 c 6.59 -6.244 13.849 -6.244 20.438 0 c 4.689 4.443 8.873 4.443 13.561 0 c 6.591 -6.243 13.848 -6.243 20.439 -0.001 c 4.689 4.443 8.871 4.442 13.561 0.001 c 6.59 -6.244 13.848 -6.243 20.439 -0.001 c 1.002 0.95 1.045 2.532 0.096 3.535 c -0.951 1.002 -2.53 1.043 -3.535 0.096 c -4.689 -4.443 -8.871 -4.443 -13.561 0 c -6.592 6.242 -13.85 6.243 -20.439 -0.001 c -4.688 -4.441 -8.871 -4.44 -13.561 0 C 34.925 69.328 31.462 70.89 28 70.89 z" style="stroke: none; stroke-width: 1; stroke-dasharray: none; stroke-linecap: butt; stroke-linejoin: miter; stroke-miterlimit: 10; fill: rgb(255,255,255); fill-rule: nonzero; opacity: 1;" transform=" matrix(1 0 0 1 0 0) " stroke-linecap="round" />
	<path d="M 28 81.548 c -3.462 0 -6.924 -1.561 -10.219 -4.683 c -4.689 -4.441 -8.872 -4.441 -13.562 0 c -1.002 0.95 -2.584 0.907 -3.534 -0.095 c -0.95 -1.003 -0.907 -2.585 0.096 -3.534 c 6.59 -6.244 13.849 -6.244 20.438 0 c 4.689 4.441 8.872 4.441 13.562 0 c 6.59 -6.244 13.847 -6.243 20.439 -0.001 c 4.689 4.443 8.871 4.443 13.561 0 c 6.592 -6.242 13.848 -6.242 20.439 0 c 1.002 0.95 1.045 2.532 0.096 3.535 c -0.951 1.003 -2.53 1.043 -3.535 0.096 c -4.689 -4.443 -8.871 -4.443 -13.561 0 c -6.592 6.242 -13.848 6.242 -20.439 0 c -4.689 -4.443 -8.872 -4.441 -13.561 -0.001 C 34.924 79.987 31.462 81.548 28 81.548 z" style="stroke: none; stroke-width: 1; stroke-dasharray: none; stroke-linecap: butt; stroke-linejoin: miter; stroke-miterlimit: 10; fill: rgb(255,255,255); fill-rule: nonzero; opacity: 1;" transform=" matrix(1 0 0 1 0 0) " stroke-linecap="round" />
	<path d="M 89.22 51.917 c -6.592 -6.242 -13.85 -6.243 -20.439 0.001 c -0.781 0.74 -1.547 1.345 -2.305 1.838 L 46.349 15.176 c -1.523 -2.932 -4.523 -4.753 -7.828 -4.753 H 11.887 c -4.249 0 -7.705 3.456 -7.705 7.705 v 3.044 c 0 4.249 3.456 7.705 7.705 7.705 h 17.93 c 0.742 0 1.417 0.409 1.761 1.067 l 4.148 7.94 L 16.269 48.456 c -5.161 -2.401 -10.515 -1.25 -15.489 3.462 c -1.002 0.949 -1.045 2.531 -0.096 3.534 c 0.95 1.001 2.532 1.044 3.534 0.095 c 4.69 -4.44 8.873 -4.441 13.561 0 C 21.076 58.67 24.538 60.23 28 60.23 c 3.462 0 6.925 -1.562 10.219 -4.684 c 4.69 -4.44 8.874 -4.441 13.561 0 c 4.552 4.314 9.423 5.644 14.173 3.998 c 0.207 -0.047 0.411 -0.116 0.607 -0.219 c 0.032 -0.017 0.058 -0.04 0.089 -0.058 c 1.888 -0.772 3.755 -2.001 5.57 -3.72 c 4.689 -4.443 8.871 -4.443 13.561 0 c 1.005 0.947 2.584 0.906 3.535 -0.096 C 90.265 54.449 90.222 52.867 89.22 51.917 z M 34.78 51.918 c -4.688 4.443 -8.872 4.443 -13.561 0 c -0.107 -0.102 -0.216 -0.188 -0.324 -0.286 l 17.146 -9.316 l 0.376 0.72 c 0.446 0.854 1.316 1.343 2.218 1.343 c 0.39 0 0.786 -0.092 1.156 -0.285 c 1.224 -0.639 1.697 -2.149 1.058 -3.374 l -3.854 -7.377 c 0 -0.001 -0.001 -0.002 -0.002 -0.003 l -2.984 -5.712 c -1.209 -2.314 -3.582 -3.751 -6.192 -3.751 h -17.93 c -1.491 0 -2.705 -1.213 -2.705 -2.705 v -3.044 c 0 -1.491 1.213 -2.705 2.705 -2.705 h 26.634 c 1.432 0 2.731 0.789 3.394 2.063 l 19.686 37.739 c -2.085 -0.125 -4.177 -1.219 -6.381 -3.307 C 48.628 45.675 41.371 45.675 34.78 51.918 z" style="stroke: none; stroke-width: 1; stroke-dasharray: none; stroke-linecap: butt; stroke-linejoin: miter; stroke-miterlimit: 10; fill: rgb(255,255,255); fill-rule: nonzero; opacity: 1;" transform=" matrix(1 0 0 1 0 0) " stroke-linecap="round" />
	<path d="M 72.782 42.423 c -7.726 0 -14.011 -6.285 -14.011 -14.011 c 0 -7.725 6.285 -14.01 14.011 -14.01 s 14.011 6.285 14.011 14.01 C 86.793 36.138 80.508 42.423 72.782 42.423 z M 72.782 19.402 c -4.969 0 -9.011 4.042 -9.011 9.01 c 0 4.969 4.042 9.011 9.011 9.011 s 9.011 -4.042 9.011 -9.011 C 81.793 23.444 77.751 19.402 72.782 19.402 z" style="stroke: none; stroke-width: 1; stroke-dasharray: none; stroke-linecap: butt; stroke-linejoin: miter; stroke-miterlimit: 10; fill: rgb(255,255,255); fill-rule: nonzero; opacity: 1;" transform=" matrix(1 0 0 1 0 0) " stroke-linecap="round" />
</g>
</g>
</svg>